<?xml version="1.0" encoding="UTF-8"?>
<svg version="1.1" xmlns="http://www.w3.org/2000/svg" width="1024" height="1024">
<path d="M0 0 C337.92 0 675.84 0 1024 0 C1024 337.92 1024 675.84 1024 1024 C686.08 1024 348.16 1024 0 1024 C0 686.08 0 348.16 0 0 Z " fill="#000000" transform="translate(0,0)"/>
<path d="M0 0 C3.86474922 0.01311018 7.72948615 0.00856047 11.59425139 0.00629318 C18.26963355 0.00472978 24.94492688 0.01404038 31.6202867 0.03100669 C41.27139603 0.05552013 50.92246296 0.0632145 60.57360004 0.06697067 C76.23672757 0.07351593 91.8998079 0.09342448 107.56290984 0.1218785 C122.7666835 0.14946916 137.97044428 0.17067815 153.17423797 0.18340194 C154.11339955 0.18419011 155.05256113 0.18497828 156.02018215 0.18579034 C160.73227716 0.18970581 165.44437227 0.19349685 170.15646744 0.19722605 C209.16942268 0.22826191 248.18232523 0.28104483 287.19523406 0.34819686 C287.19523406 0.67819686 287.19523406 1.00819686 287.19523406 1.34819686 C286.07890594 1.55573593 284.96257781 1.76327499 283.81242156 1.97710311 C263.84686251 5.84433522 244.86114629 12.33396413 226.19523406 20.34819686 C225.47029754 20.65837753 224.74536101 20.96855819 223.99845672 21.28813827 C211.77681664 26.59250398 200.46090857 33.26277264 189.19523406 40.34819686 C188.58776336 40.73008163 187.98029265 41.1119664 187.35441375 41.50542343 C174.04024695 49.95495137 162.04194644 59.99280654 150.19523406 70.34819686 C149.2555075 71.16288436 148.31578094 71.97757186 147.34757781 72.81694686 C143.23203442 76.1466257 143.23203442 76.1466257 140.19523406 80.34819686 C138.94897341 80.34901402 138.94897341 80.34901402 137.67753577 80.34984767 C117.43680064 80.3648321 97.19628536 80.40734613 76.95567298 80.48028743 C67.1673374 80.51490182 57.37914213 80.5402883 47.59074187 80.5437535 C39.05654259 80.54679834 30.52259342 80.56735858 21.9884907 80.60872144 C17.47204894 80.63000604 12.95596235 80.64267547 8.43947005 80.63435066 C4.18261231 80.62678165 -0.07352748 80.64274808 -4.33025384 80.67625701 C-5.88698739 80.68445613 -7.4437928 80.68428073 -9.00051904 80.67479408 C-18.60115326 80.62211122 -27.36585225 81.04569459 -34.60540795 88.10367763 C-42.06108618 96.75619433 -45.21802604 109.23295674 -48.64070344 119.95366561 C-49.61184459 122.78561748 -50.70313576 125.31369431 -52.05476594 127.97319686 C-54.52588234 133.31202859 -55.62427625 139.51796637 -54.80476594 145.34819686 C-52.1453602 148.06277148 -50.46222382 149.24244381 -46.68249345 149.85041893 C-45.50280614 149.85150846 -44.32311883 149.85259799 -43.10768342 149.85372055 C-42.4472643 149.85981067 -41.78684518 149.86590079 -41.10641336 149.87217546 C-38.89970869 149.88775424 -36.69409291 149.87499566 -34.48738313 149.86235702 C-32.90160655 149.86781977 -31.31583526 149.87506233 -29.73007417 149.88394821 C-26.3142649 149.89929049 -22.89875605 149.90208437 -19.48291993 149.89518249 C-14.05673817 149.88436324 -8.63086707 149.90182514 -3.20472932 149.92299545 C5.40683185 149.95328452 14.01830094 149.96495021 22.62991095 149.9685719 C37.97196763 149.97519085 53.31395677 150.00475786 68.65593576 150.05366826 C74.02304923 150.06994534 79.39003013 150.07534072 84.75716543 150.0723455 C161.3049822 150.05430431 161.3049822 150.05430431 182.41398406 169.37944686 C192.30419979 179.86012324 194.40682989 189.76293673 194.49040008 203.77373397 C194.507415 205.74866291 194.55126489 207.72330224 194.59562469 209.69780624 C194.6556073 218.90283088 193.16106308 226.65604162 190.19523406 235.34819686 C189.92332244 236.19615829 189.65141082 237.04411972 189.37125945 237.91777694 C180.60550718 264.76558149 165.42857004 286.91799628 146.19523406 307.34819686 C145.50042937 308.10874374 144.80562469 308.86929061 144.08976531 309.65288436 C124.39641411 330.45089163 97.33241265 345.35915431 71.19523406 356.34819686 C70.24906219 356.74780624 69.30289031 357.14741561 68.32804656 357.55913436 C65.96335788 358.52826907 63.58775505 359.45004602 61.19523406 360.34819686 C60.20265594 360.72331405 59.21007781 361.09843124 58.18742156 361.48491561 C33.70667635 370.48769547 8.54598172 376.34099006 -17.24226594 380.09819686 C-17.903555 380.19915664 -18.56484406 380.30011642 -19.24617219 380.40413558 C-51.36647516 385.24083938 -84.26347321 384.63720221 -116.64848256 384.55098474 C-122.26972456 384.53823919 -127.89097021 384.53728857 -133.51222444 384.53493392 C-144.09333699 384.52878755 -154.67440682 384.51247237 -165.25550079 384.49223495 C-177.32865129 384.4696591 -189.40180413 384.45882875 -201.47497058 384.44884408 C-226.25159246 384.42809764 -251.02817678 384.39305918 -275.80476594 384.34819686 C-271.91245968 376.21894185 -265.24431933 369.64736912 -258.82820344 363.43413436 C-256.52766936 361.06254131 -254.49097528 358.55513277 -252.42976594 355.97319686 C-248.61234514 351.21458439 -244.50168232 346.9433115 -240.14460969 342.68022811 C-237.47974992 340.02426604 -235.01511077 337.24894842 -232.56648469 334.39507186 C-226.08757134 326.86746522 -219.39874811 319.45522459 -212.52330136 312.28627479 C-210.66068681 310.24767234 -210.66068681 310.24767234 -208.68169713 307.43674552 C-205.06352 302.67839724 -201.94878786 298.98521673 -196.09002709 297.24449432 C-191.71733461 296.70120198 -187.35659746 296.81808077 -182.9607718 296.92583358 C-181.28392493 296.9226241 -179.60708118 296.91409743 -177.93028474 296.90070236 C-173.40167785 296.87917457 -168.8765518 296.93076856 -164.34846783 296.99540365 C-159.58565672 297.05008985 -154.82307402 297.0346525 -150.06003022 297.02645004 C-141.03246842 297.02107056 -132.00631959 297.07486384 -122.97912103 297.1516695 C-109.78035513 297.26135349 -96.58139304 297.28234234 -83.38223577 297.30309379 C-81.42131824 297.30630704 -79.46040077 297.3095512 -77.49948335 297.31282699 C-76.06111386 297.31507221 -76.06111386 297.31507221 -74.5936864 297.31736279 C-68.94769133 297.32815398 -63.30210624 297.35578869 -57.65627015 297.39929354 C-54.11984654 297.425529 -50.58340372 297.44392469 -47.04692674 297.4612931 C-45.42738022 297.47124905 -43.80785032 297.48477827 -42.18836999 297.5024842 C-10.60485499 297.8437145 24.6711354 293.05566637 49.19523406 271.34819686 C49.85652312 270.80292343 50.51781219 270.25764999 51.19914031 269.69585311 C58.60987526 263.06824867 65.04501077 253.4488287 66.90226531 243.59819686 C67.04431193 238.9685293 66.98654486 235.77089476 64.70695281 231.67241561 C59.31375593 226.6818213 51.90322401 225.87936097 44.79557586 225.67168319 C43.95584322 225.63860219 43.11611058 225.60552118 42.2509315 225.57143772 C29.32563806 225.13068118 16.38192634 225.19409263 3.4504621 225.17953193 C-1.50837104 225.17351558 -6.46713639 225.15688316 -11.42593598 225.13819015 C-13.13762018 225.13185654 -14.84930441 225.12553088 -16.56098866 225.11921299 C-17.41691157 225.11604717 -18.27283448 225.11288136 -19.15469444 225.10961962 C-30.6629591 225.06785011 -42.1711861 225.03454674 -53.6795218 225.02226913 C-61.49498855 225.01384684 -69.31028003 224.99122108 -77.12565905 224.95291346 C-81.24013644 224.93332718 -85.35435301 224.92069019 -89.46887994 224.92574775 C-136.63416508 224.97274363 -136.63416508 224.97274363 -152.74226594 210.16069686 C-162.61829077 199.49745266 -164.30981228 186.19872781 -163.99226594 172.23491561 C-163.37701271 159.48122883 -159.35464663 147.19930359 -154.80476594 135.34819686 C-154.01004367 133.25461817 -153.21582041 131.16085002 -152.42195344 129.06694686 C-151.01867352 125.37149762 -149.61442326 121.67642371 -148.20784211 117.98223007 C-145.89112624 111.89133721 -143.59227592 105.79616683 -141.36335969 99.67241561 C-137.15803731 88.15082389 -132.61546119 77.15187758 -126.80476594 66.34819686 C-126.29300813 65.34788436 -125.78125031 64.34757186 -125.25398469 63.31694686 C-111.13734253 36.22517 -86.87160883 15.85902381 -58.01960969 6.06304061 C-54.30574029 5.01839072 -50.57190062 4.16957531 -46.80476594 3.34819686 C-45.6219208 3.08120326 -44.43907567 2.81420965 -43.22038674 2.53912532 C-28.93180293 -0.39229922 -14.5171193 -0.0619193 0 0 Z " fill="#FCFCFD" transform="translate(384.8047659397125,295.6518031358719)"/>
<path d="M0 0 C5.26489638 0.02547838 10.52980813 0.02739138 15.79475665 0.03210163 C25.7066741 0.04439801 35.61840924 0.07703338 45.53024739 0.11749959 C56.83911495 0.16263978 68.14799251 0.18430913 79.45692813 0.20428133 C102.66656655 0.24578242 125.87604464 0.31586667 149.08554339 0.40557575 C146.69052947 3.44444747 144.41235549 6.15313069 141.43393207 8.6257906 C136.54982094 12.80762182 132.04195888 17.32366105 127.51132464 21.88213825 C126.1810348 23.21455051 126.1810348 23.21455051 124.82387042 24.5738802 C122.48797255 26.91439495 120.15425522 29.25705433 117.82162738 31.60082722 C115.45244076 33.98027313 113.08040129 36.35687131 110.70859027 38.73370075 C107.23426169 42.21616763 103.76123215 45.69991806 100.2898891 49.18536091 C99.55315967 49.92441669 98.81643023 50.66347248 98.05737567 51.4249239 C96.87342217 52.61417296 95.69106502 53.80501905 94.51190448 54.99902058 C91.52698252 58.01496967 88.34513978 60.68924543 85.08554339 63.40557575 C82.55482032 65.89058791 80.07558988 68.41595517 77.62069964 70.97588825 C76.80472308 71.81893513 75.98874652 72.661982 75.14804339 73.53057575 C74.33464496 74.37877888 73.52124652 75.226982 72.68319964 76.10088825 C66.60020864 81.49782764 61.35213964 81.839112 53.56405902 81.79034138 C52.51587497 81.79571415 51.46769092 81.80108692 50.38774371 81.80662251 C48.11413165 81.81639262 45.84048234 81.81934698 43.56685138 81.81626606 C39.94761873 81.81177089 36.3288708 81.82584355 32.7096889 81.84466267 C25.00164843 81.88143528 17.29365858 81.89512089 9.58554339 81.90557575 C0.7007205 81.9177236 -8.18386723 81.93975722 -17.06858563 81.98557758 C-20.59653228 81.99894984 -24.12416636 81.9950101 -27.6521275 81.99017048 C-60.14773969 82.06674914 -93.31675942 88.20037215 -120.91445661 106.40557575 C-121.97922223 107.10553669 -123.04398786 107.80549763 -124.14101911 108.5266695 C-148.38497542 124.76279513 -168.51209968 145.70188942 -178.91445661 173.40557575 C-182.21731747 172.30462213 -182.69956562 171.71597385 -184.60195661 168.96807575 C-185.03894879 168.35061481 -185.47594098 167.73315388 -185.92617536 167.096982 C-186.91445661 165.40557575 -186.91445661 165.40557575 -186.91445661 163.40557575 C-187.80197614 162.99372028 -187.80197614 162.99372028 -188.70742536 162.5735445 C-190.82109547 161.45498279 -192.40194681 160.24940581 -194.22695661 158.71807575 C-216.3129203 142.07240458 -245.53604934 141.72146987 -271.91445661 139.40557575 C-268.93032507 133.15740083 -265.76103011 127.26675218 -261.78945661 121.59307575 C-261.31862653 120.91438435 -260.84779645 120.23569294 -260.36269879 119.53643513 C-255.61539547 112.80137573 -250.3550641 106.58418363 -244.91445661 100.40557575 C-244.02887067 99.35370075 -244.02887067 99.35370075 -243.12539411 98.28057575 C-235.24445018 88.96320362 -226.34490804 80.14796015 -216.91445661 72.40557575 C-216.39158063 71.97422321 -215.86870465 71.54287067 -215.32998395 71.09844685 C-152.80183417 19.69251531 -79.72235353 -0.45292105 0 0 Z " fill="#FCFCFD" transform="translate(765.9144566059113,295.5944242477417)"/>
<path d="M0 0 C2.34565476 2.88695971 4.60871297 5.81700395 6.8125 8.8125 C7.87295019 10.20989126 8.93546464 11.60571832 10 13 C10.46664062 13.64066406 10.93328125 14.28132812 11.4140625 14.94140625 C15.07533676 19.5884082 19.33129392 22.89022025 24.1875 26.1875 C24.7745874 26.59145996 25.3616748 26.99541992 25.96655273 27.41162109 C35.5717659 33.69012562 46.13041401 36.83382828 57.25 39.25 C58.36890625 39.50523437 59.4878125 39.76046875 60.640625 40.0234375 C68.9911644 41.894431 77.00073852 43.11488813 85.56774902 43.15821838 C86.64380929 43.16562535 86.64380929 43.16562535 87.74160814 43.17318195 C90.12135643 43.18841751 92.50107806 43.1968793 94.88085938 43.20532227 C96.59630565 43.21491179 98.31174961 43.22492248 100.02719116 43.23532104 C104.66705048 43.26225986 109.30691985 43.28332882 113.94681358 43.30332303 C118.80216663 43.3252509 123.65748907 43.3526062 128.51281738 43.37937927 C137.6994361 43.42921445 146.88607188 43.47418718 156.07272387 43.51740164 C166.53464108 43.5668526 176.99652757 43.6217415 187.45841503 43.67708123 C208.97224804 43.79076037 230.4861104 43.89762983 252 44 C251.49116945 47.65374106 250.92894483 49.57402457 248.14967346 52.02192688 C247.55382667 52.55963557 246.95797987 53.09734426 246.34407711 53.65134716 C245.69500676 54.21926637 245.04593641 54.78718557 244.37719727 55.37231445 C242.99484935 56.62137373 241.61471311 57.87288431 240.23660278 59.12661743 C239.17568861 60.08829519 239.17568861 60.08829519 238.09334183 61.06940079 C234.84308107 64.06697661 231.72118998 67.18499109 228.60913086 70.32495117 C227.99356606 70.94486592 227.37800127 71.56478067 226.743783 72.20348072 C225.47160224 73.48666644 224.20038655 74.77080962 222.93009758 76.05586815 C220.9016744 78.10684032 218.86886532 80.15337694 216.83485413 82.19880676 C211.06520745 88.00159472 205.300306 93.80904276 199.54516602 99.6262207 C195.99410904 103.21493975 192.43576025 106.79628886 188.87265205 110.37304115 C187.52669519 111.72702241 186.18351439 113.08376943 184.84324455 114.44338036 C182.97779611 116.33534299 181.10321071 118.21778793 179.22631836 120.09838867 C178.68235916 120.65470474 178.13839996 121.21102081 177.57795715 121.78419495 C172.10321669 127.23054953 166.34672113 130.12314524 158.56692505 130.12698364 C157.68449127 130.12980347 156.8020575 130.13262329 155.8928833 130.13552856 C154.93194763 130.13350433 153.97101196 130.1314801 152.98095703 130.12939453 C151.4530101 130.13202301 151.4530101 130.13202301 149.89419556 130.13470459 C146.515384 130.13911549 143.13662463 130.13618383 139.7578125 130.1328125 C137.3948465 130.13348669 135.03188056 130.13445768 132.66891479 130.13571167 C127.70065657 130.13718838 122.73241629 130.13503839 117.76416016 130.13037109 C111.45742387 130.12472983 105.15073068 130.12791696 98.84399605 130.13394356 C93.95172821 130.13759811 89.05947017 130.13638745 84.167202 130.13381577 C81.84645457 130.133157 79.52570619 130.13393736 77.20495987 130.13629532 C65.76014167 130.14535627 54.33575608 130.05995662 42.90063477 129.55517578 C42.01725245 129.5165851 41.13387012 129.47799442 40.22371864 129.43823433 C32.65193324 129.0637649 25.27756963 128.09281937 17.8125 126.75 C16.54220947 126.52892578 15.27191895 126.30785156 13.96313477 126.08007812 C-15.44599298 120.80797905 -51.5289545 110.35798781 -72 87 C-72 86.34 -72 85.68 -72 85 C-70.15062697 83.62280732 -68.24188444 82.32516225 -66.3125 81.0625 C-59.07316991 76.21657699 -52.56540878 70.70905112 -46 65 C-44.7089345 63.93676959 -43.41739685 62.8741117 -42.125 61.8125 C-38.34613754 58.5510368 -35.20461918 54.81440501 -32 51 C-30.89011719 49.73929688 -30.89011719 49.73929688 -29.7578125 48.453125 C-17.7296995 34.54201668 -5.42939072 17.73959346 0 0 Z " fill="#FDFCFD" transform="translate(581,550)"/>
</svg>
