<?xml version="1.0" encoding="utf-8" ?><svg xmlns="http://www.w3.org/2000/svg" xmlns:xlink="http://www.w3.org/1999/xlink" width="1080" height="1080" viewBox="0 0 1080 1080"><path d="M509.603 7.15771C803.506 -9.32646 1055.16 215.495 1071.77 509.391C1088.39 803.286 863.676 1055.04 569.787 1071.78C275.715 1088.54 23.7725 863.655 7.14785 569.575C-9.47679 275.495 215.516 23.6522 509.603 7.15771Z"/><path fill="#FEFEFE" d="M482.306 30.0663C511.019 29.5351 540.008 30.3875 568.743 30.0117C577.343 29.8993 586.495 29.8302 595.069 30.281C591.999 38.5401 586.19 50.6796 582.463 58.6295L566.458 92.9841L521.507 189.588L387.267 478.543L333.244 594.182C326.199 609.432 318.434 623.827 312.049 639.388C328.769 640.01 348.295 639.566 365.237 639.565L463.151 639.559L761.046 639.579C766.278 648.021 768.158 655.477 772.24 664.002L792.991 708.311C795.852 714.518 798.718 720.727 801.588 726.926C802.258 728.374 801.19 731.265 799.935 731.378C787.146 732.53 773.594 731.942 760.693 731.897L335.637 731.903L214.27 731.902L178.024 731.902C172.942 731.902 163.144 732.173 158.524 731.576C156.417 726.226 172.376 696.536 175.34 689.979L222.726 587.262L417.919 169.142C434.196 134.867 449.378 99.3039 465.848 65.113C470.376 55.7113 477.292 38.0707 482.306 30.0663Z"/><path fill="#FEFEFE" d="M648.001 146.955C649.189 147.082 649.469 147.158 650.629 147.424C653.329 150.03 679.99 208.721 684.407 218.003L844.185 561.105L895.629 672.129C899.417 680.276 921.581 726.193 921.73 730.295C917.248 732.771 883.849 731.932 876.577 731.932L813.092 731.813C808.847 724.268 806.163 716.991 802.303 709.519C792.541 690.618 784.386 671.147 775.343 651.951L696.545 483.8C687.956 467.202 679.831 447.606 671.568 430.482C664.711 416.273 656.426 399.173 650.401 384.748C646.082 394.324 641.264 403.893 636.827 413.471L577.971 539.962L546.601 607.44C543.697 613.562 537.834 627.5 534.622 632.7C530.671 633.603 526.587 633.516 522.56 633.393C503.167 632.796 483.794 632.694 464.395 632.9C451.238 633.039 436.647 634.173 423.615 632.583C429.609 618.325 435.22 607.05 441.609 593.257L481.39 508.068L598.884 254.477L635.654 175.182C637.947 170.167 647.502 151.21 648.001 146.955Z"/><path fill="#FEFEFE" d="M414.125 737.507C427.761 737.038 442.281 737.418 455.981 737.288C461.854 737.232 476.747 736.976 481.824 737.935L482.185 738.703C481.214 745.774 463.569 782.228 459.506 791.16L402.907 914.951L385.063 953.74C382.265 959.835 377.988 969.905 374.748 975.47C370.335 978.369 339.384 976.8 332.095 976.888C324.349 977.021 267.05 977.691 264.348 974.893C264.34 973.187 264.795 972.41 265.492 970.872L343.774 802.597L362.594 761.052C365.755 753.996 368.713 746.065 372.648 739.51C374.756 737.251 381.491 737.568 384.068 737.617C394.154 737.806 404.092 737.681 414.125 737.507Z"/></svg>